<?xml version="1.0" encoding="utf-8"?>
<!-- Generator: Adobe Illustrator 21.1.0, SVG Export Plug-In . SVG Version: 6.00 Build 0)  -->
<svg version="1.1" id="Layer_1" xmlns="http://www.w3.org/2000/svg" xmlns:xlink="http://www.w3.org/1999/xlink" x="0px" y="0px"
	 viewBox="0 0 1042.1 1367" style="enable-background:new 0 0 1042.1 1367;" xml:space="preserve">
<style type="text/css">
	.st0{fill:#333333;}
</style>
<g id="Ebene_1">
	<path class="st0" d="M0,1315.5l85.7,51.5l247.8-412.5l-8.7-5.2C555,1061,836.5,980.4,970.7,756.8c142.1-236.5,65.5-543.4-171-685.5
		C563.2-70.7,256.3,5.9,114.2,242.4C-20,465.9,41,752.3,247.8,903l0,0L0,1315.5z M327.3,857.8C129.5,739,65.5,482.3,184.3,284.5
		c118.8-197.8,375.5-261.9,573.3-143c197.8,118.8,261.9,375.5,143,573.3C781.8,912.6,525.2,976.6,327.3,857.8z"/>
</g>
<g id="Ebene_2">
</g>
</svg>
